<?xml version="1.0" encoding="UTF-8" standalone="no"?>
<svg
   width="781.333"
   height="833.333"
   viewBox="0 0 586 625"
   preserveAspectRatio="xMidYMid meet"
   version="1.1"
   id="svg1"
   sodipodi:docname="erinias.svg"
   inkscape:version="1.4 (86a8ad7, 2024-10-11)"
   xmlns:inkscape="http://www.inkscape.org/namespaces/inkscape"
   xmlns:sodipodi="http://sodipodi.sourceforge.net/DTD/sodipodi-0.dtd"
   xmlns="http://www.w3.org/2000/svg"
   xmlns:svg="http://www.w3.org/2000/svg">
  <defs
     id="defs1" />
  <sodipodi:namedview
     id="namedview1"
     pagecolor="#ffffff"
     bordercolor="#000000"
     borderopacity="0.25"
     inkscape:showpageshadow="2"
     inkscape:pageopacity="0.0"
     inkscape:pagecheckerboard="0"
     inkscape:deskcolor="#d1d1d1"
     inkscape:zoom="0.92760036"
     inkscape:cx="390.79329"
     inkscape:cy="416.6665"
     inkscape:window-width="1920"
     inkscape:window-height="991"
     inkscape:window-x="-9"
     inkscape:window-y="-9"
     inkscape:window-maximized="1"
     inkscape:current-layer="svg1" />
  <path
     d="M 116.9,3.8 C 95.1,21.6 75.3,44.2 59,69.8 50.7,83 38.5,107.2 33.6,120.3 29.5,131.2 23,153.1 23,156 c 0,0.9 3.3,5.5 7.2,10.1 16.9,19.5 34.2,43.4 42.1,58.4 2.1,3.9 2.1,3.1 -0.4,-15.9 -1.8,-13.4 -2,-19.2 -1.6,-34.6 0.4,-10.2 1.2,-22.6 1.9,-27.5 l 1.3,-9 0.6,15.5 c 0.8,19.3 2.8,33.3 8,57 6.6,29.8 13,49.4 24.1,73.5 9.9,21.5 18.7,33 30.9,40.3 4.5,2.7 11.9,5.4 11.9,4.3 0,-0.4 -0.9,-3.4 -2,-6.7 -6.3,-18.2 -8.7,-36.8 -7,-55.4 1.7,-19.9 4.9,-32.1 12.6,-48.8 21.8,-46.9 64.2,-79.6 115.4,-88.8 12.8,-2.3 37.2,-2.3 50,0 32,5.7 61,20.8 83.4,43.2 41.2,41.2 55.5,98 37.6,149.8 -1.1,3.3 -2,6.3 -2,6.7 0,1.1 7.4,-1.6 11.9,-4.3 12.2,-7.3 21,-18.8 30.9,-40.3 11.1,-24.1 17.5,-43.7 24.1,-73.5 5.2,-23.7 7.2,-37.7 8,-57 l 0.6,-15.5 1.3,9 c 0.7,4.9 1.5,17.3 1.9,27.5 0.4,15.4 0.2,21.2 -1.6,34.6 -2.5,19 -2.5,19.8 -0.4,15.9 7.9,-15 25.2,-38.9 42.1,-58.4 3.9,-4.6 7.2,-9.2 7.2,-10.1 0,-2.9 -6.5,-24.8 -10.6,-35.7 C 547.5,107.2 535.3,83 527,69.8 510.7,44.2 490.4,21 468.9,3.7 c -5.5,-4.4 -6.4,-4.6 -4.5,-1 2.8,5.6 9.5,28.1 11.5,38.8 5.7,30.3 5.5,64.8 -0.5,101.1 -3.8,23.2 -9.9,45.9 -16.1,60.3 l -1.9,4.4 -3.5,-7.2 -3.5,-7.1 2.4,-9.3 c 3,-11.4 4.1,-33.3 2.3,-45.8 -5.7,-40.1 -28,-75.4 -62.4,-98.8 -2.7,-1.8 -5,-3.1 -5.2,-2.9 -0.2,0.2 0.3,3 1.1,6.3 6.7,28.4 1.5,56.4 -14,74.9 l -2.5,3 -8.8,-4.1 c -23.5,-10.9 -41.6,-14.6 -70.3,-14.6 -28.7,0 -46.8,3.7 -70.3,14.6 l -8.8,4.1 -2.5,-3 c -15.5,-18.5 -20.7,-46.5 -14,-74.9 0.8,-3.3 1.3,-6.1 1.1,-6.3 -0.2,-0.2 -2.5,1.1 -5.2,2.9 -34.4,23.4 -56.7,58.7 -62.4,98.8 -1.8,12.5 -0.7,34.4 2.3,45.8 l 2.4,9.3 -3.5,7.1 -3.5,7.2 -1.9,-4.4 c -6.2,-14.4 -12.3,-37.1 -16.1,-60.3 -6,-36.3 -6.2,-70.8 -0.5,-101.1 2,-10.7 8.7,-33.2 11.5,-38.8 1.9,-3.6 0.8,-3.4 -4.7,1.1 z M 2.2,206.7 c -0.4,1 -0.7,11.5 -0.7,23.3 0,18.5 0.3,23.1 2.3,32.9 4.5,22.4 12.9,42.9 25,61.1 6.2,9.3 20.1,23.9 27.4,28.6 l 4.7,3.1 -5.2,0.6 c -2.9,0.3 -7.5,1.3 -10.4,2.2 l -5.2,1.6 20.5,13.7 c 19.4,13 20.3,13.7 16.9,14 -4.9,0.4 -20.4,-2.4 -29.4,-5.4 C 35.7,378.3 19.2,369.7 9.2,362 3.4,357.6 0,355.6 0.4,356.7 c 0.3,1 1.2,4.7 2.1,8.3 5.5,21.9 23.4,56.4 42.4,81.8 16.5,22 33.4,39.1 50.8,51.6 4,2.8 7.3,5.4 7.3,5.7 0,0.9 -10.4,3.9 -13.7,3.9 -1.6,0 -3.2,0.3 -3.6,0.6 -0.3,0.3 2.9,3.6 7.1,7.3 46.9,41 105.5,60.8 148,50 l 8.3,-2.1 7.5,5.9 c 4.2,3.2 10.3,7.6 13.6,9.7 l 6,3.9 -3.4,2.6 c -1.8,1.4 -5.4,4.5 -8,7 -4.3,3.9 -4.8,4.8 -4.8,8.8 0,6.8 5.9,11.5 12.4,9.9 1.3,-0.3 6.5,-3.8 11.5,-7.6 l 9.1,-7.1 9.1,7.1 c 5,3.8 10.2,7.3 11.5,7.6 6.5,1.6 12.4,-3.1 12.4,-9.9 0,-4 -0.5,-4.9 -4.7,-8.8 -2.7,-2.5 -6.3,-5.6 -8.1,-7 l -3.4,-2.6 6,-3.9 c 3.3,-2.1 9.4,-6.5 13.6,-9.7 l 7.5,-5.9 8.3,2.1 c 42.5,10.8 101.1,-9 148,-50 4.2,-3.7 7.4,-7 7.1,-7.3 -0.4,-0.3 -2,-0.6 -3.6,-0.6 -3.3,0 -13.7,-3 -13.7,-3.9 0,-0.3 3.3,-2.9 7.3,-5.7 17.4,-12.5 34.3,-29.6 50.8,-51.6 19,-25.4 36.9,-59.9 42.4,-81.8 l 2.1,-8.3 c 0.4,-1.1 -3,0.9 -8.8,5.3 -10,7.7 -26.5,16.3 -38.9,20.4 -9,3 -24.5,5.8 -29.4,5.4 -3.4,-0.3 -2.5,-1 16.9,-14 l 20.5,-13.7 -5.2,-1.6 c -2.9,-0.9 -7.5,-1.9 -10.4,-2.2 l -5.2,-0.6 4.7,-3.1 c 7.3,-4.7 21.2,-19.3 27.4,-28.6 12.1,-18.2 20.5,-38.7 25,-61.1 2,-9.8 2.3,-14.4 2.3,-32.9 0,-11.8 -0.3,-22.3 -0.7,-23.3 -0.7,-1.5 -1.5,-0.9 -5.7,4 -7.8,9.3 -23.7,24.2 -36.6,34.5 -11.9,9.4 -39.8,29.6 -42.3,30.5 -0.6,0.3 -2.8,4 -4.8,8.2 -15.8,33.7 -32.7,58 -62.4,89.7 -5.7,6.1 -7.3,7.3 -11.1,7.9 -16.4,2.8 -47.7,17.7 -66.4,31.8 -9.5,7.1 -24.4,21.9 -30.4,30 -14.8,20.2 -21.9,44.7 -20.8,71.6 0.6,13 3.2,27.2 5,27.2 0.5,0.1 4.7,-3.4 9.5,-7.8 29,-26.4 61,-47.8 93.2,-62.4 21.3,-9.6 41.4,-16.7 61.8,-21.9 11.8,-2.9 42.3,-9.1 43.4,-8.8 0.5,0.2 -7.5,4.5 -17.9,9.5 -22.5,10.9 -21.3,10.3 -43.8,18.8 -19.5,7.3 -42.1,16.7 -51.9,21.7 -12.4,6.2 -33.8,19.3 -48.6,29.8 -1.9,1.4 -15.6,12.2 -30.3,24 -33.7,27 -30.3,24.5 -32.6,22.9 -1.1,-0.8 -14,-11.1 -28.8,-22.9 L 232,521 c -14.8,-10.5 -36.2,-23.6 -48.6,-29.8 -9.8,-5 -32.4,-14.4 -51.9,-21.7 -22.5,-8.5 -21.3,-7.9 -43.8,-18.8 -10.4,-5 -18.4,-9.3 -17.9,-9.5 1.1,-0.3 31.6,5.9 43.4,8.8 57.7,14.6 109.4,42.8 155,84.3 4.8,4.4 9,7.9 9.5,7.8 1.8,0 4.4,-14.2 5,-27.2 1.1,-26.9 -6,-51.4 -20.8,-71.6 -6,-8.1 -20.9,-22.9 -30.4,-30 -18.7,-14.1 -50,-29 -66.4,-31.8 -3.8,-0.6 -5.4,-1.8 -11.1,-7.9 -29.7,-31.7 -46.6,-56 -62.4,-89.7 -2,-4.2 -4.2,-7.9 -4.8,-8.2 C 84.3,274.8 56.4,254.6 44.5,245.2 31.6,234.9 15.7,220 7.9,210.7 c -4.2,-4.9 -5,-5.5 -5.7,-4 z m 178,25.6 c -3.3,3.9 -10.4,26.7 -12.8,40.8 -2.5,15.3 -1.6,36.6 2,47.4 3.5,10.1 6.3,15.4 12.9,23.4 19.3,23.9 55.5,27.8 75.4,8.2 7.8,-7.7 9.8,-12.6 9.8,-24.1 0,-8.1 -0.4,-10.6 -2.9,-16.9 -6.6,-16.9 -18.9,-30.3 -42.2,-46 -19,-12.9 -29.2,-20.9 -35.6,-28.1 -4.5,-5 -5.7,-5.9 -6.6,-4.7 z m 47.6,59.3 c 8.4,3.5 13.1,11 13.2,21 0,8 -3,13.8 -9.3,18.1 -15.3,10.3 -35.6,-0.2 -35.7,-18.5 0,-8.9 4.4,-16.2 12.3,-20.1 5.1,-2.5 14.1,-2.8 19.5,-0.5 z m 171.7,-55 c -6.1,7.1 -15.5,14.6 -34.6,27.6 -24.7,16.7 -36.8,29.8 -43.5,46.9 -2.5,6.3 -2.9,8.8 -2.9,16.9 0,11.5 2,16.4 9.8,24.1 19.9,19.6 56.1,15.7 75.4,-8.2 6.6,-8 9.4,-13.3 12.9,-23.4 5.2,-15.3 4.4,-44 -1.8,-64.5 -3.1,-10.4 -7.9,-22.9 -9.3,-24 -0.8,-0.7 -2.5,0.6 -6,4.6 z m -19.7,56.7 c 6.2,4 9.5,9.7 10,16.8 0.6,7.8 -1.6,13.6 -7.2,18.7 -14.3,13.2 -37.6,3.3 -37.6,-16 0,-9.8 4.3,-17.1 12.5,-21 6.1,-2.9 16.8,-2.2 22.3,1.5 z"
     id="path1"
     sodipodi:nodetypes="cccsccccccccccscccscscsccccccccccscccccccccccccsccccsccccsccccccccccccscccccccccccccccsscccccccccscccccscccccccccsscccccccccccccccscccccccccccccccccccccccccccccccccccccccccccccscccccccccccccscccccccccscc"
     style="fill:#db324d;fill-opacity:1" />
</svg>
